<svg xmlns="http://www.w3.org/2000/svg" version="1.1" xmlns:xlink="http://www.w3.org/1999/xlink" width="1000" height="1000"><g clip-path="url(#SvgjsClipPath1186)"><rect width="1000" height="1000" fill="#c6a0f6"></rect><g transform="matrix(0.68359375,0,0,0.68359375,150,150)"><svg xmlns="http://www.w3.org/2000/svg" version="1.1" xmlns:xlink="http://www.w3.org/1999/xlink" width="1024" height="1024"><svg xmlns="http://www.w3.org/2000/svg" width="1024" height="1024" viewBox="0 0 1024 1024">
  <defs>
    <style>
      .cls-1 {
        fill-rule: evenodd;
      }
    </style>
  <clipPath id="SvgjsClipPath1186"><rect width="1000" height="1000" x="0" y="0" rx="350" ry="350"></rect></clipPath></defs>
  <path id="Color_Fill_1" data-name="Color Fill 1" class="cls-1" d="M492,128c32.817-.849,52.26,14.819,73,27,34.295,20.142,69.551,37.132,103,57,16.286,9.673,42.811,23.421,47,30,1.13,2.723.634,6.83-1,10-9.743,12.781-25.738,19.668-39,29L565,356c-12.575,8.475-30.638,30.922-55,25-15.682-3.812-28.657-15.286-41-23l-74-45c-16.789-11.478-94.51-46.011-92-64-0.613-7.256,33.616-27.145,50-38C398.265,181.01,477.257,129.218,492,128ZM271,277c23.789-.119,38.617,17.378,54,27l117,73c19.765,12.462,46.058,21.963,53,47,7.064,25.479-3.714,106.935-8,133-2.669,16.228-.06,30.726-11,38-17.812,11.843-47.506-12.64-59-20-35.439-22.694-153.484-81.094-161-120q0.5-64.994,1-130,0.5-18.5,1-37C260.32,281.915,265.836,280.31,271,277Zm465,0c12.715-.291,20.572,3.668,23,13,7.872,30.255,1.5,88.364,4,125q0.5,19.5,1,39c-5.556,27.38-28.2,37.789-48,51L595,585c-13.421,8-44.63,30.224-64,17-17.561-11.988-7.364-96.793-3-125q2-25,4-50c8.762-24.5,38.169-37.054,58-51C638.078,342.19,728.542,276.414,736,277ZM318,544c38.4,1.122,60.509,61.143,44,101-6.919,16.7-24.374,28.068-28,47-3.436,17.938,12.026,30.035,16,43,11.218,36.6-14.321,80.346-46,81l-10-8c0.629-22.965,23.388-29.164,18-57-4.475-23.119-27.9-37.846-20-69,6.737-26.551,29.855-38.544,35-67,5.166-28.57-16.969-38.735-18-62l4-7Zm372,5,8,1c14.909,17.394-12.3,26.981-7,49,4.707,19.546,23.765,29.628,28,54,6.471,37.242-24.049,49.142-29,75-3.354,17.517,11.513,26.943,14,41,3.067,17.338-8.439,27.224-11,40q1,13.5,2,27c-11.741,14.975-31.4,2.412-34-13l9-42c-3.376-22.914-31.345-33.745-20-67l28-47c4.873-21.051-11.588-30.136-17-42C645.31,590.6,668.74,562.53,690,549ZM431,612c39.408,0.376,68.144,50.949,54,95l-30,55c-4.731,21.732,11.441,33.343,15,49,7.924,34.853-19.085,80.542-50,74l-7-7c0.213-24.2,22.986-32.266,17-60-4.4-20.375-26.406-30-20-61,6.192-29.962,30.873-42.882,36-74,4.546-27.59-28.94-45.2-22-64C425.929,614.877,427.637,614.489,431,612Zm142,6,12,2c4.024,8.893.362,19.061,4,30,6.164,18.536,25.9,32.879,18,63-5.638,21.506-25.546,33.241-29,55-2.634,16.6,11.5,27.416,14,42,4.1,23.878-14.642,35.811-18,54q0.5,10,1,20c-1.65,3.655-2.389,4.31-6,6-48.881,12.742-13.175-60.94-16-75l-18-37c-8.258-40.555,27.442-51.951,33-80C573.854,668.455,527.064,647.621,573,618Z"></path>
</svg></svg></g></g></svg>